<svg width="10" height="10" viewBox="0 0 10 10" fill="none" xmlns="http://www.w3.org/2000/svg">
<g clip-path="url(#clip0_70_272)">
<path fill-rule="evenodd" clip-rule="evenodd" d="M2.27889 2.27915C2.33749 2.22063 2.41691 2.18776 2.49973 2.18776C2.58254 2.18776 2.66196 2.22063 2.72056 2.27915L4.99972 4.55832L7.27889 2.27915C7.3075 2.24845 7.342 2.22382 7.38033 2.20674C7.41867 2.18966 7.46005 2.18048 7.50201 2.17974C7.54397 2.179 7.58565 2.18671 7.62456 2.20243C7.66347 2.21815 7.69882 2.24154 7.72849 2.27122C7.75817 2.30089 7.78156 2.33624 7.79728 2.37515C7.81299 2.41406 7.82071 2.45574 7.81997 2.4977C7.81923 2.53966 7.81005 2.58104 7.79297 2.61937C7.77589 2.65771 7.75126 2.69221 7.72056 2.72082L5.44139 4.99998L7.72056 7.27915C7.75126 7.30776 7.77589 7.34226 7.79297 7.38059C7.81005 7.41892 7.81923 7.46031 7.81997 7.50226C7.82071 7.54422 7.81299 7.5859 7.79728 7.62481C7.78156 7.66373 7.75817 7.69907 7.72849 7.72875C7.69882 7.75842 7.66347 7.78182 7.62456 7.79753C7.58565 7.81325 7.54397 7.82097 7.50201 7.82023C7.46005 7.81949 7.41867 7.8103 7.38033 7.79322C7.342 7.77614 7.3075 7.75152 7.27889 7.72082L4.99972 5.44165L2.72056 7.72082C2.66132 7.77602 2.58297 7.80607 2.50201 7.80464C2.42105 7.80321 2.3438 7.77041 2.28655 7.71316C2.22929 7.6559 2.1965 7.57866 2.19507 7.4977C2.19364 7.41674 2.22369 7.33839 2.27889 7.27915L4.55806 4.99998L2.27889 2.72082C2.22037 2.66222 2.1875 2.5828 2.1875 2.49998C2.1875 2.41717 2.22037 2.33774 2.27889 2.27915Z" fill="#323232"/>
</g>
<defs>
<clipPath id="clip0_70_272">
<rect width="10" height="10" fill="white"/>
</clipPath>
</defs>
</svg>
