<svg width="10" height="10" viewBox="0 0 10 10" fill="none" xmlns="http://www.w3.org/2000/svg">
<g clip-path="url(#clip0_174_446)">
<g clip-path="url(#clip1_174_446)">
<path d="M3.99803 1.64167C4.03553 1.41583 4.23137 1.25 4.46053 1.25H5.54095C5.77012 1.25 5.96595 1.41583 6.00345 1.64167L6.0922 2.17542C6.11845 2.33125 6.22262 2.46125 6.36095 2.53792C6.39178 2.55458 6.4222 2.5725 6.45262 2.59083C6.58803 2.6725 6.75262 2.69792 6.90053 2.6425L7.40762 2.4525C7.51153 2.41342 7.62595 2.41249 7.73048 2.44988C7.83502 2.48727 7.92289 2.56055 7.97845 2.65667L8.51845 3.59292C8.57389 3.68904 8.59343 3.80172 8.57359 3.9109C8.55376 4.02008 8.49583 4.11869 8.41012 4.18917L7.9922 4.53375C7.87012 4.63417 7.8097 4.78917 7.81303 4.94708C7.81362 4.9825 7.81362 5.01792 7.81303 5.05333C7.8097 5.21083 7.87012 5.36583 7.9922 5.46625L8.41053 5.81083C8.5872 5.95667 8.63303 6.20875 8.51887 6.40667L7.97803 7.34292C7.92255 7.43902 7.83478 7.51232 7.73033 7.54978C7.62588 7.58724 7.51153 7.58643 7.40762 7.5475L6.90053 7.3575C6.75262 7.30208 6.58803 7.3275 6.4522 7.40917C6.422 7.42754 6.39144 7.44532 6.36053 7.4625C6.22262 7.53875 6.11845 7.66875 6.0922 7.82458L6.00345 8.35833C5.96595 8.58458 5.77012 8.75 5.54095 8.75H4.46012C4.23095 8.75 4.03553 8.58417 3.99762 8.35833L3.90887 7.82458C3.88303 7.66875 3.77887 7.53875 3.64053 7.46208C3.60964 7.44504 3.57908 7.4274 3.54887 7.40917C3.41345 7.3275 3.24887 7.30208 3.10053 7.3575L2.59345 7.5475C2.48959 7.58647 2.37527 7.58734 2.27082 7.54995C2.16638 7.51257 2.07858 7.43936 2.02303 7.34333L1.48262 6.40708C1.42718 6.31096 1.40764 6.19828 1.42747 6.0891C1.44731 5.97992 1.50524 5.88131 1.59095 5.81083L2.00928 5.46625C2.13095 5.36625 2.19137 5.21083 2.18845 5.05333C2.1878 5.01792 2.1878 4.9825 2.18845 4.94708C2.19137 4.78875 2.13095 4.63417 2.00928 4.53375L1.59095 4.18917C1.50534 4.11871 1.44748 4.02018 1.42765 3.91109C1.40781 3.80201 1.42729 3.68942 1.48262 3.59333L2.02303 2.65708C2.07853 2.56089 2.16637 2.48752 2.27091 2.45006C2.37546 2.41259 2.4899 2.41346 2.59387 2.4525L3.10053 2.6425C3.24887 2.69792 3.41345 2.6725 3.54887 2.59083C3.57887 2.5725 3.6097 2.555 3.64053 2.5375C3.77887 2.46125 3.88303 2.33125 3.90887 2.17542L3.99803 1.64167Z" stroke="#323232" stroke-linecap="round" stroke-linejoin="round"/>
<path d="M6.25 5C6.25 5.33152 6.1183 5.64946 5.88388 5.88388C5.64946 6.1183 5.33152 6.25 5 6.25C4.66848 6.25 4.35054 6.1183 4.11612 5.88388C3.8817 5.64946 3.75 5.33152 3.75 5C3.75 4.66848 3.8817 4.35054 4.11612 4.11612C4.35054 3.8817 4.66848 3.75 5 3.75C5.33152 3.75 5.64946 3.8817 5.88388 4.11612C6.1183 4.35054 6.25 4.66848 6.25 5Z" stroke="#323232" stroke-linecap="round" stroke-linejoin="round"/>
</g>
</g>
<defs>
<clipPath id="clip0_174_446">
<rect width="10" height="10" fill="white"/>
</clipPath>
<clipPath id="clip1_174_446">
<rect width="10" height="10" fill="white"/>
</clipPath>
</defs>
</svg>
