<svg xmlns="http://www.w3.org/2000/svg" class="h-5 w-5 transition-transform duration-300" data-filter-target="icon" fill="none" viewBox="0 0 24 24" stroke="currentColor">
    <path data-filter-target="filterPath" stroke-linecap="round" stroke-linejoin="round" stroke-width="1.5" d="M12 6V4m0 2a2 2 0 100 4m0-4a2 2 0 110 4m-6 8a2 2 0 100-4m0 4a2 2 0 110-4m0 4v2m0-6V4m6 6v10m6-2a2 2 0 100-4m0 4a2 2 0 110-4m0 4v2m0-6V4" />
    <path data-filter-target="closePath" class="hidden" stroke-linecap="round" stroke-linejoin="round" stroke-width="3" d="M6 18L18 6M6 6l12 12" />
</svg>