<svg width="10" height="10" viewBox="0 0 10 10" fill="none" xmlns="http://www.w3.org/2000/svg">
<g clip-path="url(#clip0_106_268)">
<g clip-path="url(#clip1_106_268)">
<path d="M8.75033 8.74984L6.58491 6.58442M6.58491 6.58442C7.17098 5.99835 7.50024 5.20346 7.50024 4.37463C7.50024 3.5458 7.17098 2.75091 6.58491 2.16484C5.99884 1.57876 5.20395 1.24951 4.37512 1.24951C3.54628 1.24951 2.7514 1.57876 2.16533 2.16484C1.57925 2.75091 1.25 3.5458 1.25 4.37463C1.25 5.20346 1.57925 5.99835 2.16533 6.58442C2.7514 7.17049 3.54628 7.49975 4.37512 7.49975C5.20395 7.49975 5.99884 7.17049 6.58491 6.58442Z" stroke="#323232" stroke-linecap="round" stroke-linejoin="round"/>
</g>
</g>
<defs>
<clipPath id="clip0_106_268">
<rect width="10" height="10" fill="white"/>
</clipPath>
<clipPath id="clip1_106_268">
<rect width="10" height="10" fill="white"/>
</clipPath>
</defs>
</svg>
