<svg width="10" height="10" viewBox="0 0 77 77" fill="none" xmlns="http://www.w3.org/2000/svg">
  <defs>
    <style>
      .cls-1 {
        fill: #000;
        fill-rule: evenodd;
        stroke-width: 0px;
      }
    </style>
  </defs>
  <path class="cls-1" d="M31.23,0h13.93v8.7c3.21.75,6.23,2.02,8.96,3.71l6.15-6.15,9.85,9.85-6.15,6.15c1.69,2.73,2.96,5.75,3.72,8.97h8.7v13.93h-8.7c-.75,3.21-2.02,6.23-3.71,8.96l6.15,6.16-9.85,9.85-6.15-6.16c-2.73,1.69-5.75,2.96-8.97,3.72v8.7h-13.93v-8.7c-3.22-.76-6.23-2.03-8.96-3.72l-6.16,6.16-9.85-9.85,6.16-6.16c-1.69-2.73-2.95-5.74-3.71-8.96H0v-13.93h8.7c.76-3.21,2.03-6.23,3.71-8.96l-6.15-6.16,9.85-9.85,6.15,6.16c2.73-1.69,5.75-2.96,8.96-3.71V0ZM38.2,54.2c8.84,0,16-7.16,16-16s-7.16-16-16-16-16,7.16-16,16,7.16,16,16,16Z"/>
</svg>
