<svg width="10" height="10" viewBox="0 0 10 10" fill="none" xmlns="http://www.w3.org/2000/svg">
<g clip-path="url(#clip0_70_143)">
<path d="M6.56208 2.5C6.56208 2.9144 6.39746 3.31183 6.10444 3.60485C5.81141 3.89788 5.41398 4.0625 4.99958 4.0625C4.58518 4.0625 4.18775 3.89788 3.89473 3.60485C3.6017 3.31183 3.43708 2.9144 3.43708 2.5C3.43708 2.0856 3.6017 1.68817 3.89473 1.39515C4.18775 1.10212 4.58518 0.9375 4.99958 0.9375C5.41398 0.9375 5.81141 1.10212 6.10444 1.39515C6.39746 1.68817 6.56208 2.0856 6.56208 2.5ZM1.875 8.3825C1.88839 7.56265 2.22347 6.7809 2.80799 6.20585C3.39251 5.6308 4.17962 5.30853 4.99958 5.30853C5.81955 5.30853 6.60666 5.6308 7.19118 6.20585C7.77569 6.7809 8.11078 7.56265 8.12417 8.3825C7.14391 8.83199 6.07798 9.06396 4.99958 9.0625C3.88458 9.0625 2.82625 8.81917 1.875 8.3825Z" stroke="#323232" stroke-linecap="round" stroke-linejoin="round"/>
</g>
<defs>
<clipPath id="clip0_70_143">
<rect width="10" height="10" fill="white"/>
</clipPath>
</defs>
</svg>
